<svg fill="none" xmlns="http://www.w3.org/2000/svg" viewBox="0 0 400 400">
<path d="M200 0C1.543 0 0 89.545 0 200s1.543 200 200 200 200-89.545 200-200S398.457 0 200 0z" fill="#E1567C"/>
<path d="M222.067 111.402a20.578 20.578 0 00-17.619-9.953 20.571 20.571 0 00-17.618 9.953l-28.982 49.64a141.874 141.874 0 0178.181 117.426H215.68a121.921 121.921 0 00-68.095-100.072l-26.824 46.38a70.115 70.115 0 0140.654 53.604h-46.732a3.345 3.345 0 01-2.731-4.889l12.949-22.023a47.29 47.29 0 00-14.799-8.368l-12.817 22.022a19.999 19.999 0 007.443 27.485 20.529 20.529 0 009.955 2.643h63.998a85.445 85.445 0 00-35.236-76.244l10.174-17.618a105.145 105.145 0 0145.368 93.862h54.22a158.031 158.031 0 00-72.279-140.066l20.569-35.237a3.395 3.395 0 014.625-1.189c2.334 1.277 89.369 153.148 90.999 154.909a3.348 3.348 0 01-2.995 4.978H273.16c.264 5.608.264 11.202 0 16.781h21.054a20.222 20.222 0 0018.823-12.511 20.21 20.21 0 001.526-7.794 19.772 19.772 0 00-2.731-10.043l-89.765-153.676z" fill="#fff"/>
</svg>
